<svg width="25" height="24" viewBox="0 0 25 24" fill="none" xmlns="http://www.w3.org/2000/svg">
<path fill-rule="evenodd" clip-rule="evenodd" d="M12.6766 0.199951C6.03542 0.199951 0.666672 5.60828 0.666672 12.2991C0.666672 17.6475 4.10661 22.1747 8.87873 23.7771C9.47536 23.8975 9.69391 23.5167 9.69391 23.1964C9.69391 22.9159 9.67424 21.9545 9.67424 20.9527C6.33337 21.674 5.63766 19.5104 5.63766 19.5104C5.10076 18.1082 4.30525 17.7478 4.30525 17.7478C3.21178 17.0066 4.3849 17.0066 4.3849 17.0066C5.59784 17.0867 6.2343 18.2485 6.2343 18.2485C7.30785 20.0913 9.03778 19.5706 9.73373 19.25C9.83305 18.4688 10.1514 17.928 10.4894 17.6275C7.82484 17.3471 5.02136 16.3055 5.02136 11.658C5.02136 10.3359 5.49828 9.25423 6.25397 8.41299C6.13474 8.11258 5.71707 6.87039 6.37344 5.20782C6.37344 5.20782 7.3875 4.88725 9.674 6.44977C10.6529 6.18492 11.6625 6.05019 12.6766 6.04906C13.6907 6.04906 14.7244 6.18943 15.679 6.44977C17.9657 4.88725 18.9798 5.20782 18.9798 5.20782C19.6361 6.87039 19.2182 8.11258 19.099 8.41299C19.8746 9.25423 20.3318 10.3359 20.3318 11.658C20.3318 16.3055 17.5284 17.3269 14.8439 17.6275C15.2814 18.0081 15.659 18.7291 15.659 19.871C15.659 21.4935 15.6394 22.7957 15.6394 23.1962C15.6394 23.5167 15.8582 23.8975 16.4546 23.7773C21.2267 22.1745 24.6666 17.6475 24.6666 12.2991C24.6863 5.60828 19.2979 0.199951 12.6766 0.199951Z" fill="#F86048"/>
</svg>
