<svg width="24" height="24" viewBox="0 0 24 24" fill="none" xmlns="http://www.w3.org/2000/svg">
<path d="M22.2283 0H1.77167C1.3018 0 0.851169 0.186657 0.518917 0.518909C0.186665 0.851161 7.62939e-06 1.30179 7.62939e-06 1.77167V22.2283C7.62939e-06 22.6982 0.186665 23.1488 0.518917 23.4811C0.851169 23.8133 1.3018 24 1.77167 24H22.2283C22.6982 24 23.1488 23.8133 23.4811 23.4811C23.8134 23.1488 24 22.6982 24 22.2283V1.77167C24 1.30179 23.8134 0.851161 23.4811 0.518909C23.1488 0.186657 22.6982 0 22.2283 0ZM7.15334 20.445H3.54501V8.98333H7.15334V20.445ZM5.34667 7.395C4.93737 7.3927 4.53792 7.2692 4.19874 7.04009C3.85956 6.81098 3.59585 6.48653 3.44089 6.10769C3.28592 5.72885 3.24666 5.31259 3.32804 4.91145C3.40942 4.51032 3.60781 4.14228 3.89816 3.85378C4.18852 3.56529 4.55782 3.36927 4.95947 3.29046C5.36113 3.21165 5.77712 3.25359 6.15496 3.41099C6.5328 3.56838 6.85555 3.83417 7.08247 4.17481C7.3094 4.51546 7.43033 4.91569 7.43001 5.325C7.43387 5.59903 7.38252 5.87104 7.27902 6.1248C7.17552 6.37857 7.02199 6.6089 6.82758 6.80207C6.63317 6.99523 6.40186 7.14728 6.14743 7.24915C5.89301 7.35102 5.62068 7.40062 5.34667 7.395ZM20.4533 20.455H16.8467V14.1933C16.8467 12.3467 16.0617 11.7767 15.0483 11.7767C13.9783 11.7767 12.9283 12.5833 12.9283 14.24V20.455H9.32001V8.99167H12.79V10.58H12.8367C13.185 9.875 14.405 8.67 16.2667 8.67C18.28 8.67 20.455 9.865 20.455 13.365L20.4533 20.455Z" fill="#F86048"/>
</svg>
