<svg width="35" height="24" viewBox="0 0 35 24" fill="none" xmlns="http://www.w3.org/2000/svg">
<path fill-rule="evenodd" clip-rule="evenodd" d="M32.5527 1.82906C33.0812 2.36098 33.4607 3.02239 33.6533 3.7471C34.3656 6.42194 34.3656 12 34.3656 12C34.3656 12 34.3656 17.5781 33.6533 20.2529C33.4607 20.9776 33.0812 21.639 32.5527 22.1709C32.0241 22.7029 31.3652 23.0866 30.6417 23.2839C27.9785 24 17.3333 24 17.3333 24C17.3333 24 6.68816 24 4.02493 23.2839C3.30148 23.0866 2.64251 22.7029 2.11399 22.1709C1.58546 21.639 1.20591 20.9776 1.01332 20.2529C0.301062 17.5781 0.301062 12 0.301062 12C0.301062 12 0.301062 6.42194 1.01332 3.7471C1.20591 3.02239 1.58546 2.36098 2.11399 1.82906C2.64251 1.29714 3.30148 0.913356 4.02493 0.716129C6.68816 0 17.3333 0 17.3333 0C17.3333 0 27.9785 0 30.6417 0.716129C31.3652 0.913356 32.0241 1.29714 32.5527 1.82906ZM22.7527 12.0001L13.8495 6.93495V17.0653L22.7527 12.0001Z" fill="#F86048"/>
</svg>
